<mxfile host="app.diagrams.net" modified="2023-06-26T18:46:47.136Z" agent="Mozilla/5.0 (Macintosh; Intel Mac OS X 10_15_7) AppleWebKit/605.1.15 (KHTML, like Gecko) Version/15.1 Safari/605.1.15" version="21.5.0" etag="QnM8PoU0jIuVJQc4Yjzi" type="github">
  <diagram name="Page-1" id="m5sL6d-QwgVfmaHVpl5T">
    <mxGraphModel>
      <root>
        <mxCell id="0" />
        <mxCell id="1" parent="0" />
      </root>
    </mxGraphModel>
  </diagram>
</mxfile>
